# xmcd
# Copyright (C) 1995-1998 Ti Kan
#
# Track frame offsets:
#       150
#       11649
#       26906
#       37831
#       49868
#       63489
#       74456
#       85941
#       96551
#       109114
#       121356
#       134267
#       146351
#       157327
#       159750
#
# Disc length: 2286 seconds
#
# Revision: 0
# Processed by: cddbd v1.5.2PL0 Copyright (c) Steve Scherf et al.
# Submitted via: CD-Import v1.0
#
DISCID=d008ec0f
DTITLE=Bruno Hächler - Zebra
DYEAR=2008
DGENRE=
TTITLE0=Sibe Langi Schlange
TTITLE1=Superman
TTITLE2=Zebra
TTITLE3=Ich Wohne I De Stadt
TTITLE4=Wänn I Trurig Bin
TTITLE5=Gans
TTITLE6=Lache
TTITLE7=Näbel
TTITLE8=De Hund Chunnt
TTITLE9=Winter
TTITLE10=Fuultier
TTITLE11=Sibeschlöfer
TTITLE12=Chrottepösch
TTITLE13=Zrugg
TTITLE14=Uf Mim Baum
EXTD=
EXTT0=
EXTT1=
EXTT2=
EXTT3=
EXTT4=
EXTT5=
EXTT6=
EXTT7=
EXTT8=
EXTT9=
EXTT10=
EXTT11=
EXTT12=
EXTT13=
EXTT14=
PLAYORDER=
